<?xml version="1.0" encoding="UTF-8" standalone="no"?>
<!DOCTYPE svg PUBLIC "-//W3C//DTD SVG 1.1//EN"
 "http://www.w3.org/Graphics/SVG/1.1/DTD/svg11.dtd">
<!-- Generated by graphviz version 2.36.0 (20140111.2315)
 -->
<!-- Title: G Pages: 1 -->
<svg width="350pt" height="404pt"
 viewBox="0.00 0.00 350.00 404.00" xmlns="http://www.w3.org/2000/svg" xmlns:xlink="http://www.w3.org/1999/xlink">
<g id="graph0" class="graph" transform="scale(1 1) rotate(0) translate(4 400)">
<title>G</title>
<polygon fill="white" stroke="none" points="-4,4 -4,-400 346,-400 346,4 -4,4"/>
<!-- 15 -->
<g id="node1" class="node"><title>15</title>
<ellipse fill="none" stroke="red" cx="135" cy="-378" rx="27" ry="18"/>
<text text-anchor="middle" x="135" y="-373.8" font-family="Times,serif" font-size="14.00">15</text>
</g>
<!-- 12 -->
<g id="node2" class="node"><title>12</title>
<ellipse fill="none" stroke="black" cx="99" cy="-306" rx="27" ry="18"/>
<text text-anchor="middle" x="99" y="-301.8" font-family="Times,serif" font-size="14.00">12</text>
</g>
<!-- 15&#45;&gt;12 -->
<g id="edge1" class="edge"><title>15&#45;&gt;12</title>
<path fill="none" stroke="red" d="M126.65,-360.765C122.288,-352.283 116.853,-341.714 111.959,-332.197"/>
<polygon fill="red" stroke="red" points="114.99,-330.439 107.304,-323.147 108.765,-333.641 114.99,-330.439"/>
</g>
<!-- 17 -->
<g id="node7" class="node"><title>17</title>
<ellipse fill="none" stroke="black" cx="171" cy="-306" rx="27" ry="18"/>
<text text-anchor="middle" x="171" y="-301.8" font-family="Times,serif" font-size="14.00">17</text>
</g>
<!-- 15&#45;&gt;17 -->
<g id="edge6" class="edge"><title>15&#45;&gt;17</title>
<path fill="none" stroke="green" d="M143.35,-360.765C147.712,-352.283 153.147,-341.714 158.041,-332.197"/>
<polygon fill="green" stroke="green" points="161.235,-333.641 162.696,-323.147 155.01,-330.439 161.235,-333.641"/>
</g>
<!-- 10 -->
<g id="node3" class="node"><title>10</title>
<ellipse fill="none" stroke="black" cx="27" cy="-234" rx="27" ry="18"/>
<text text-anchor="middle" x="27" y="-229.8" font-family="Times,serif" font-size="14.00">10</text>
</g>
<!-- 12&#45;&gt;10 -->
<g id="edge2" class="edge"><title>12&#45;&gt;10</title>
<path fill="none" stroke="red" d="M84.4297,-290.834C74.2501,-280.938 60.4761,-267.546 48.9694,-256.359"/>
<polygon fill="red" stroke="red" points="51.4055,-253.846 41.7957,-249.385 46.5259,-258.865 51.4055,-253.846"/>
</g>
<!-- 14 -->
<g id="node6" class="node"><title>14</title>
<ellipse fill="none" stroke="black" cx="99" cy="-234" rx="27" ry="18"/>
<text text-anchor="middle" x="99" y="-229.8" font-family="Times,serif" font-size="14.00">14</text>
</g>
<!-- 12&#45;&gt;14 -->
<g id="edge5" class="edge"><title>12&#45;&gt;14</title>
<path fill="none" stroke="green" d="M99,-287.697C99,-279.983 99,-270.712 99,-262.112"/>
<polygon fill="green" stroke="green" points="102.5,-262.104 99,-252.104 95.5001,-262.104 102.5,-262.104"/>
</g>
<!-- 2 -->
<g id="node4" class="node"><title>2</title>
<ellipse fill="none" stroke="black" cx="27" cy="-162" rx="27" ry="18"/>
<text text-anchor="middle" x="27" y="-157.8" font-family="Times,serif" font-size="14.00">2</text>
</g>
<!-- 10&#45;&gt;2 -->
<g id="edge3" class="edge"><title>10&#45;&gt;2</title>
<path fill="none" stroke="red" d="M27,-215.697C27,-207.983 27,-198.712 27,-190.112"/>
<polygon fill="red" stroke="red" points="30.5001,-190.104 27,-180.104 23.5001,-190.104 30.5001,-190.104"/>
</g>
<!-- 8 -->
<g id="node5" class="node"><title>8</title>
<ellipse fill="none" stroke="black" cx="27" cy="-90" rx="27" ry="18"/>
<text text-anchor="middle" x="27" y="-85.8" font-family="Times,serif" font-size="14.00">8</text>
</g>
<!-- 2&#45;&gt;8 -->
<g id="edge4" class="edge"><title>2&#45;&gt;8</title>
<path fill="none" stroke="green" d="M27,-143.697C27,-135.983 27,-126.712 27,-118.112"/>
<polygon fill="green" stroke="green" points="30.5001,-118.104 27,-108.104 23.5001,-118.104 30.5001,-118.104"/>
</g>
<!-- 16 -->
<g id="node8" class="node"><title>16</title>
<ellipse fill="none" stroke="black" cx="171" cy="-234" rx="27" ry="18"/>
<text text-anchor="middle" x="171" y="-229.8" font-family="Times,serif" font-size="14.00">16</text>
</g>
<!-- 17&#45;&gt;16 -->
<g id="edge7" class="edge"><title>17&#45;&gt;16</title>
<path fill="none" stroke="red" d="M171,-287.697C171,-279.983 171,-270.712 171,-262.112"/>
<polygon fill="red" stroke="red" points="174.5,-262.104 171,-252.104 167.5,-262.104 174.5,-262.104"/>
</g>
<!-- 19 -->
<g id="node9" class="node"><title>19</title>
<ellipse fill="none" stroke="black" cx="243" cy="-234" rx="27" ry="18"/>
<text text-anchor="middle" x="243" y="-229.8" font-family="Times,serif" font-size="14.00">19</text>
</g>
<!-- 17&#45;&gt;19 -->
<g id="edge8" class="edge"><title>17&#45;&gt;19</title>
<path fill="none" stroke="green" d="M185.57,-290.834C195.75,-280.938 209.524,-267.546 221.031,-256.359"/>
<polygon fill="green" stroke="green" points="223.474,-258.865 228.204,-249.385 218.595,-253.846 223.474,-258.865"/>
</g>
<!-- 18 -->
<g id="node10" class="node"><title>18</title>
<ellipse fill="none" stroke="black" cx="207" cy="-162" rx="27" ry="18"/>
<text text-anchor="middle" x="207" y="-157.8" font-family="Times,serif" font-size="14.00">18</text>
</g>
<!-- 19&#45;&gt;18 -->
<g id="edge9" class="edge"><title>19&#45;&gt;18</title>
<path fill="none" stroke="red" d="M234.65,-216.765C230.288,-208.283 224.853,-197.714 219.959,-188.197"/>
<polygon fill="red" stroke="red" points="222.99,-186.439 215.304,-179.147 216.765,-189.641 222.99,-186.439"/>
</g>
<!-- 50 -->
<g id="node11" class="node"><title>50</title>
<ellipse fill="none" stroke="black" cx="279" cy="-162" rx="27" ry="18"/>
<text text-anchor="middle" x="279" y="-157.8" font-family="Times,serif" font-size="14.00">50</text>
</g>
<!-- 19&#45;&gt;50 -->
<g id="edge10" class="edge"><title>19&#45;&gt;50</title>
<path fill="none" stroke="green" d="M251.35,-216.765C255.712,-208.283 261.147,-197.714 266.041,-188.197"/>
<polygon fill="green" stroke="green" points="269.235,-189.641 270.696,-179.147 263.01,-186.439 269.235,-189.641"/>
</g>
<!-- 20 -->
<g id="node12" class="node"><title>20</title>
<ellipse fill="none" stroke="black" cx="243" cy="-90" rx="27" ry="18"/>
<text text-anchor="middle" x="243" y="-85.8" font-family="Times,serif" font-size="14.00">20</text>
</g>
<!-- 50&#45;&gt;20 -->
<g id="edge11" class="edge"><title>50&#45;&gt;20</title>
<path fill="none" stroke="red" d="M270.65,-144.765C266.288,-136.283 260.853,-125.714 255.959,-116.197"/>
<polygon fill="red" stroke="red" points="258.99,-114.439 251.304,-107.147 252.765,-117.641 258.99,-114.439"/>
</g>
<!-- 60 -->
<g id="node13" class="node"><title>60</title>
<ellipse fill="none" stroke="black" cx="315" cy="-90" rx="27" ry="18"/>
<text text-anchor="middle" x="315" y="-85.8" font-family="Times,serif" font-size="14.00">60</text>
</g>
<!-- 50&#45;&gt;60 -->
<g id="edge12" class="edge"><title>50&#45;&gt;60</title>
<path fill="none" stroke="green" d="M287.35,-144.765C291.712,-136.283 297.147,-125.714 302.041,-116.197"/>
<polygon fill="green" stroke="green" points="305.235,-117.641 306.696,-107.147 299.01,-114.439 305.235,-117.641"/>
</g>
<!-- 70 -->
<g id="node14" class="node"><title>70</title>
<ellipse fill="none" stroke="black" cx="315" cy="-18" rx="27" ry="18"/>
<text text-anchor="middle" x="315" y="-13.8" font-family="Times,serif" font-size="14.00">70</text>
</g>
<!-- 60&#45;&gt;70 -->
<g id="edge13" class="edge"><title>60&#45;&gt;70</title>
<path fill="none" stroke="green" d="M315,-71.6966C315,-63.9827 315,-54.7125 315,-46.1124"/>
<polygon fill="green" stroke="green" points="318.5,-46.1043 315,-36.1043 311.5,-46.1044 318.5,-46.1043"/>
</g>
</g>
</svg>
