<?xml version="1.0" encoding="UTF-8" standalone="no"?>
<!DOCTYPE svg PUBLIC "-//W3C//DTD SVG 1.1//EN"
 "http://www.w3.org/Graphics/SVG/1.1/DTD/svg11.dtd">
<!-- Generated by graphviz version 2.36.0 (20140111.2315)
 -->
<!-- Title: G Pages: 1 -->
<svg width="117pt" height="332pt"
 viewBox="0.00 0.00 117.00 332.00" xmlns="http://www.w3.org/2000/svg" xmlns:xlink="http://www.w3.org/1999/xlink">
<g id="graph0" class="graph" transform="scale(1 1) rotate(0) translate(4 328)">
<title>G</title>
<polygon fill="white" stroke="none" points="-4,4 -4,-328 113,-328 113,4 -4,4"/>
<!-- 0 -->
<g id="node1" class="node"><title>0</title>
<ellipse fill="none" stroke="black" cx="54" cy="-306" rx="27" ry="18"/>
<text text-anchor="middle" x="54" y="-301.8" font-family="Times,serif" font-size="14.00">0</text>
</g>
<!-- 1 -->
<g id="node2" class="node"><title>1</title>
<ellipse fill="none" stroke="black" cx="82" cy="-234" rx="27" ry="18"/>
<text text-anchor="middle" x="82" y="-229.8" font-family="Times,serif" font-size="14.00">1</text>
</g>
<!-- 0&#45;&gt;1 -->
<g id="edge1" class="edge"><title>0&#45;&gt;1</title>
<path fill="none" stroke="black" d="M60.6356,-288.411C63.9134,-280.216 67.9442,-270.14 71.6181,-260.955"/>
<polygon fill="black" stroke="black" points="74.9477,-262.055 75.412,-251.47 68.4484,-259.455 74.9477,-262.055"/>
</g>
<!-- 2 -->
<g id="node3" class="node"><title>2</title>
<ellipse fill="none" stroke="black" cx="27" cy="-162" rx="27" ry="18"/>
<text text-anchor="middle" x="27" y="-157.8" font-family="Times,serif" font-size="14.00">2</text>
</g>
<!-- 0&#45;&gt;2 -->
<g id="edge2" class="edge"><title>0&#45;&gt;2</title>
<path fill="none" stroke="black" d="M50.7432,-287.871C46.1415,-263.67 37.688,-219.211 32.2086,-190.393"/>
<polygon fill="black" stroke="black" points="35.5748,-189.359 30.2684,-180.189 28.698,-190.667 35.5748,-189.359"/>
</g>
<!-- 1&#45;&gt;2 -->
<g id="edge3" class="edge"><title>1&#45;&gt;2</title>
<path fill="none" stroke="black" d="M70.0658,-217.811C62.7864,-208.546 53.3374,-196.52 45.1456,-186.094"/>
<polygon fill="black" stroke="black" points="47.8413,-183.86 38.9109,-178.159 42.337,-188.185 47.8413,-183.86"/>
</g>
<!-- 3 -->
<g id="node4" class="node"><title>3</title>
<ellipse fill="none" stroke="black" cx="82" cy="-90" rx="27" ry="18"/>
<text text-anchor="middle" x="82" y="-85.8" font-family="Times,serif" font-size="14.00">3</text>
</g>
<!-- 1&#45;&gt;3 -->
<g id="edge4" class="edge"><title>1&#45;&gt;3</title>
<path fill="none" stroke="black" d="M82,-215.871C82,-191.67 82,-147.211 82,-118.393"/>
<polygon fill="black" stroke="black" points="85.5001,-118.189 82,-108.189 78.5001,-118.189 85.5001,-118.189"/>
</g>
<!-- 2&#45;&gt;3 -->
<g id="edge5" class="edge"><title>2&#45;&gt;3</title>
<path fill="none" stroke="black" d="M38.9342,-145.811C46.2136,-136.546 55.6626,-124.52 63.8544,-114.094"/>
<polygon fill="black" stroke="black" points="66.663,-116.185 70.0891,-106.159 61.1587,-111.86 66.663,-116.185"/>
</g>
<!-- 4 -->
<g id="node5" class="node"><title>4</title>
<ellipse fill="none" stroke="black" cx="54" cy="-18" rx="27" ry="18"/>
<text text-anchor="middle" x="54" y="-13.8" font-family="Times,serif" font-size="14.00">4</text>
</g>
<!-- 2&#45;&gt;4 -->
<g id="edge6" class="edge"><title>2&#45;&gt;4</title>
<path fill="none" stroke="black" d="M30.2568,-143.871C34.8585,-119.67 43.312,-75.2108 48.7914,-46.3932"/>
<polygon fill="black" stroke="black" points="52.302,-46.6671 50.7316,-36.1893 45.4252,-45.3594 52.302,-46.6671"/>
</g>
<!-- 3&#45;&gt;4 -->
<g id="edge7" class="edge"><title>3&#45;&gt;4</title>
<path fill="none" stroke="black" d="M75.3644,-72.411C72.0866,-64.2164 68.0558,-54.1395 64.3819,-44.9548"/>
<polygon fill="black" stroke="black" points="67.5516,-43.4548 60.588,-35.4699 61.0523,-46.0546 67.5516,-43.4548"/>
</g>
</g>
</svg>
