<?xml version="1.0" encoding="UTF-8" standalone="no"?>
<!DOCTYPE svg PUBLIC "-//W3C//DTD SVG 1.1//EN"
 "http://www.w3.org/Graphics/SVG/1.1/DTD/svg11.dtd">
<!-- Generated by graphviz version 2.36.0 (20140111.2315)
 -->
<!-- Title: G Pages: 1 -->
<svg width="385pt" height="116pt"
 viewBox="0.00 0.00 385.00 116.00" xmlns="http://www.w3.org/2000/svg" xmlns:xlink="http://www.w3.org/1999/xlink">
<g id="graph0" class="graph" transform="scale(1 1) rotate(0) translate(4 112)">
<title>G</title>
<polygon fill="white" stroke="none" points="-4,4 -4,-112 381,-112 381,4 -4,4"/>
<!-- 200 -->
<g id="node1" class="node"><title>200</title>
<ellipse fill="none" stroke="black" cx="45" cy="-90" rx="27.1951" ry="18"/>
<text text-anchor="middle" x="45" y="-85.8" font-family="Times,serif" font-size="14.00">Num</text>
</g>
<!-- 101 -->
<g id="node4" class="node"><title>101</title>
<ellipse fill="none" stroke="black" cx="45" cy="-18" rx="45.4404" ry="18"/>
<text text-anchor="middle" x="45" y="-13.8" font-family="Times,serif" font-size="14.00">Fractional</text>
</g>
<!-- 200&#45;&gt;101 -->
<g id="edge1" class="edge"><title>200&#45;&gt;101</title>
<path fill="none" stroke="black" d="M45,-71.6966C45,-63.9827 45,-54.7125 45,-46.1124"/>
<polygon fill="black" stroke="black" points="48.5001,-46.1043 45,-36.1043 41.5001,-46.1044 48.5001,-46.1043"/>
</g>
<!-- 201 -->
<g id="node2" class="node"><title>201</title>
<ellipse fill="none" stroke="black" cx="155" cy="-90" rx="64.196" ry="18"/>
<text text-anchor="middle" x="155" y="-85.8" font-family="Times,serif" font-size="14.00">(Num a, Ord a)</text>
</g>
<!-- 102 -->
<g id="node5" class="node"><title>102</title>
<ellipse fill="none" stroke="black" cx="155" cy="-18" rx="27" ry="18"/>
<text text-anchor="middle" x="155" y="-13.8" font-family="Times,serif" font-size="14.00">Real</text>
</g>
<!-- 201&#45;&gt;102 -->
<g id="edge2" class="edge"><title>201&#45;&gt;102</title>
<path fill="none" stroke="black" d="M155,-71.6966C155,-63.9827 155,-54.7125 155,-46.1124"/>
<polygon fill="black" stroke="black" points="158.5,-46.1043 155,-36.1043 151.5,-46.1044 158.5,-46.1043"/>
</g>
<!-- 202 -->
<g id="node3" class="node"><title>202</title>
<ellipse fill="none" stroke="black" cx="307" cy="-90" rx="70.0307" ry="18"/>
<text text-anchor="middle" x="307" y="-85.8" font-family="Times,serif" font-size="14.00">(Real a, Enum a)</text>
</g>
<!-- 103 -->
<g id="node6" class="node"><title>103</title>
<ellipse fill="none" stroke="black" cx="307" cy="-18" rx="37.4062" ry="18"/>
<text text-anchor="middle" x="307" y="-13.8" font-family="Times,serif" font-size="14.00">Integral</text>
</g>
<!-- 202&#45;&gt;103 -->
<g id="edge3" class="edge"><title>202&#45;&gt;103</title>
<path fill="none" stroke="black" d="M307,-71.6966C307,-63.9827 307,-54.7125 307,-46.1124"/>
<polygon fill="black" stroke="black" points="310.5,-46.1043 307,-36.1043 303.5,-46.1044 310.5,-46.1043"/>
</g>
</g>
</svg>
