<?xml version="1.0" encoding="UTF-8" standalone="no"?>
<!DOCTYPE svg PUBLIC "-//W3C//DTD SVG 1.1//EN"
 "http://www.w3.org/Graphics/SVG/1.1/DTD/svg11.dtd">
<!-- Generated by graphviz version 2.36.0 (20140111.2315)
 -->
<!-- Title: G Pages: 1 -->
<svg width="1018pt" height="260pt"
 viewBox="0.00 0.00 1018.00 260.00" xmlns="http://www.w3.org/2000/svg" xmlns:xlink="http://www.w3.org/1999/xlink">
<g id="graph0" class="graph" transform="scale(1 1) rotate(0) translate(4 256)">
<title>G</title>
<polygon fill="white" stroke="none" points="-4,4 -4,-256 1014,-256 1014,4 -4,4"/>
<!-- 100 -->
<g id="node1" class="node"><title>100</title>
<ellipse fill="white" stroke="black" cx="704" cy="-234" rx="35.2345" ry="18"/>
<text text-anchor="middle" x="704" y="-229.8" font-family="Times,serif" font-size="14.00">Stream</text>
</g>
<!-- 110 -->
<g id="node2" class="node"><title>110</title>
<ellipse fill="pink" stroke="black" cx="519" cy="-162" rx="54.1041" ry="18"/>
<text text-anchor="middle" x="519" y="-157.8" font-family="Times,serif" font-size="14.00">Byte Stream</text>
</g>
<!-- 100&#45;&gt;110 -->
<g id="edge1" class="edge"><title>100&#45;&gt;110</title>
<path fill="none" stroke="black" d="M676.703,-222.671C646.752,-211.339 598.246,-192.985 562.929,-179.622"/>
<polygon fill="black" stroke="black" points="563.935,-176.26 553.343,-175.995 561.457,-182.807 563.935,-176.26"/>
</g>
<!-- 114 -->
<g id="node3" class="node"><title>114</title>
<ellipse fill="cyan" stroke="black" cx="797" cy="-162" rx="71.6017" ry="18"/>
<text text-anchor="middle" x="797" y="-157.8" font-family="Times,serif" font-size="14.00">Character Stream</text>
</g>
<!-- 100&#45;&gt;114 -->
<g id="edge2" class="edge"><title>100&#45;&gt;114</title>
<path fill="none" stroke="black" d="M723.27,-218.496C735.989,-208.922 752.907,-196.189 767.328,-185.334"/>
<polygon fill="black" stroke="black" points="769.595,-188.008 775.48,-179.198 765.385,-182.416 769.595,-188.008"/>
</g>
<!-- 120 -->
<g id="node4" class="node"><title>120</title>
<ellipse fill="pink" stroke="black" cx="244" cy="-90" rx="53.2368" ry="18"/>
<text text-anchor="middle" x="244" y="-85.8" font-family="Times,serif" font-size="14.00">InputStream</text>
</g>
<!-- 110&#45;&gt;120 -->
<g id="edge3" class="edge"><title>110&#45;&gt;120</title>
<path fill="none" stroke="black" d="M477.532,-150.445C428.759,-138.03 347.789,-117.419 295.161,-104.023"/>
<polygon fill="black" stroke="black" points="295.909,-100.602 285.355,-101.527 294.183,-107.385 295.909,-100.602"/>
</g>
<!-- 130 -->
<g id="node5" class="node"><title>130</title>
<ellipse fill="pink" stroke="black" cx="519" cy="-90" rx="59.5821" ry="18"/>
<text text-anchor="middle" x="519" y="-85.8" font-family="Times,serif" font-size="14.00">OutputStream</text>
</g>
<!-- 110&#45;&gt;130 -->
<g id="edge4" class="edge"><title>110&#45;&gt;130</title>
<path fill="none" stroke="black" d="M519,-143.697C519,-135.983 519,-126.712 519,-118.112"/>
<polygon fill="black" stroke="black" points="522.5,-118.104 519,-108.104 515.5,-118.104 522.5,-118.104"/>
</g>
<!-- 151 -->
<g id="node10" class="node"><title>151</title>
<ellipse fill="cyan" stroke="black" cx="797" cy="-90" rx="35.2215" ry="18"/>
<text text-anchor="middle" x="797" y="-85.8" font-family="Times,serif" font-size="14.00">Reader</text>
</g>
<!-- 114&#45;&gt;151 -->
<g id="edge9" class="edge"><title>114&#45;&gt;151</title>
<path fill="none" stroke="black" d="M797,-143.697C797,-135.983 797,-126.712 797,-118.112"/>
<polygon fill="black" stroke="black" points="800.5,-118.104 797,-108.104 793.5,-118.104 800.5,-118.104"/>
</g>
<!-- 152 -->
<g id="node11" class="node"><title>152</title>
<ellipse fill="cyan" stroke="black" cx="914" cy="-90" rx="32.2524" ry="18"/>
<text text-anchor="middle" x="914" y="-85.8" font-family="Times,serif" font-size="14.00">Writer</text>
</g>
<!-- 114&#45;&gt;152 -->
<g id="edge10" class="edge"><title>114&#45;&gt;152</title>
<path fill="none" stroke="black" d="M823.549,-145.116C841.511,-134.37 865.269,-120.155 883.929,-108.991"/>
<polygon fill="black" stroke="black" points="885.847,-111.922 892.632,-103.784 882.253,-105.915 885.847,-111.922"/>
</g>
<!-- 141 -->
<g id="node6" class="node"><title>141</title>
<ellipse fill="pink" stroke="black" cx="67" cy="-18" rx="67.3708" ry="18"/>
<text text-anchor="middle" x="67" y="-13.8" font-family="Times,serif" font-size="14.00">FileInputStream</text>
</g>
<!-- 120&#45;&gt;141 -->
<g id="edge5" class="edge"><title>120&#45;&gt;141</title>
<path fill="none" stroke="black" d="M210.708,-75.8335C183.057,-64.8982 143.434,-49.2283 112.795,-37.1109"/>
<polygon fill="black" stroke="black" points="113.775,-33.735 103.189,-33.312 111.201,-40.2444 113.775,-33.735"/>
</g>
<!-- 144 -->
<g id="node8" class="node"><title>144</title>
<ellipse fill="yellow" stroke="black" cx="244" cy="-18" rx="91.2235" ry="18"/>
<text text-anchor="middle" x="244" y="-13.8" font-family="Times,serif" font-size="14.00">ByteArrayInputStream</text>
</g>
<!-- 120&#45;&gt;144 -->
<g id="edge7" class="edge"><title>120&#45;&gt;144</title>
<path fill="none" stroke="black" d="M244,-71.6966C244,-63.9827 244,-54.7125 244,-46.1124"/>
<polygon fill="black" stroke="black" points="247.5,-46.1043 244,-36.1043 240.5,-46.1044 247.5,-46.1043"/>
</g>
<!-- 142 -->
<g id="node7" class="node"><title>142</title>
<ellipse fill="pink" stroke="black" cx="427" cy="-18" rx="73.2189" ry="18"/>
<text text-anchor="middle" x="427" y="-13.8" font-family="Times,serif" font-size="14.00">FileOutputStream</text>
</g>
<!-- 130&#45;&gt;142 -->
<g id="edge6" class="edge"><title>130&#45;&gt;142</title>
<path fill="none" stroke="black" d="M498.124,-73.1159C485.831,-63.7626 470.085,-51.7819 456.535,-41.472"/>
<polygon fill="black" stroke="black" points="458.51,-38.5768 448.432,-35.307 454.271,-44.1477 458.51,-38.5768"/>
</g>
<!-- 145 -->
<g id="node9" class="node"><title>145</title>
<ellipse fill="yellow" stroke="black" cx="616" cy="-18" rx="97.0711" ry="18"/>
<text text-anchor="middle" x="616" y="-13.8" font-family="Times,serif" font-size="14.00">ByteArrayOutputStream</text>
</g>
<!-- 130&#45;&gt;145 -->
<g id="edge8" class="edge"><title>130&#45;&gt;145</title>
<path fill="none" stroke="black" d="M541.011,-73.1159C553.879,-63.8294 570.337,-51.9529 584.554,-41.6932"/>
<polygon fill="black" stroke="black" points="587.003,-44.2417 593.064,-35.5516 582.907,-38.5653 587.003,-44.2417"/>
</g>
<!-- 161 -->
<g id="node12" class="node"><title>161</title>
<ellipse fill="cyan" stroke="black" cx="797" cy="-18" rx="66.1291" ry="18"/>
<text text-anchor="middle" x="797" y="-13.8" font-family="Times,serif" font-size="14.00">BufferedReader</text>
</g>
<!-- 151&#45;&gt;161 -->
<g id="edge11" class="edge"><title>151&#45;&gt;161</title>
<path fill="none" stroke="black" d="M797,-71.6966C797,-63.9827 797,-54.7125 797,-46.1124"/>
<polygon fill="black" stroke="black" points="800.5,-46.1043 797,-36.1043 793.5,-46.1044 800.5,-46.1043"/>
</g>
<!-- 162 -->
<g id="node13" class="node"><title>162</title>
<ellipse fill="cyan" stroke="black" cx="946" cy="-18" rx="64.1571" ry="18"/>
<text text-anchor="middle" x="946" y="-13.8" font-family="Times,serif" font-size="14.00">BufferedWriter</text>
</g>
<!-- 152&#45;&gt;162 -->
<g id="edge12" class="edge"><title>152&#45;&gt;162</title>
<path fill="none" stroke="black" d="M921.584,-72.411C925.315,-64.2493 929.899,-54.2203 934.084,-45.0653"/>
<polygon fill="black" stroke="black" points="937.274,-46.5061 938.249,-35.9562 930.908,-43.5958 937.274,-46.5061"/>
</g>
</g>
</svg>
