<?xml version="1.0" encoding="UTF-8" standalone="no"?>
<!DOCTYPE svg PUBLIC "-//W3C//DTD SVG 1.1//EN"
 "http://www.w3.org/Graphics/SVG/1.1/DTD/svg11.dtd">
<!-- Generated by graphviz version 2.36.0 (20140111.2315)
 -->
<!-- Title: G Pages: 1 -->
<svg width="605pt" height="260pt"
 viewBox="0.00 0.00 605.00 260.00" xmlns="http://www.w3.org/2000/svg" xmlns:xlink="http://www.w3.org/1999/xlink">
<g id="graph0" class="graph" transform="scale(1 1) rotate(0) translate(4 256)">
<title>G</title>
<polygon fill="white" stroke="none" points="-4,4 -4,-256 601,-256 601,4 -4,4"/>
<!-- 100 -->
<g id="node1" class="node"><title>100</title>
<ellipse fill="white" stroke="black" cx="305" cy="-234" rx="35.2345" ry="18"/>
<text text-anchor="middle" x="305" y="-229.8" font-family="Times,serif" font-size="14.00">Stream</text>
</g>
<!-- 110 -->
<g id="node2" class="node"><title>110</title>
<ellipse fill="pink" stroke="black" cx="226" cy="-162" rx="54.1041" ry="18"/>
<text text-anchor="middle" x="226" y="-157.8" font-family="Times,serif" font-size="14.00">Byte Stream</text>
</g>
<!-- 100&#45;&gt;110 -->
<g id="edge1" class="edge"><title>100&#45;&gt;110</title>
<path fill="none" stroke="black" d="M288.246,-218.155C277.62,-208.739 263.663,-196.372 251.658,-185.735"/>
<polygon fill="black" stroke="black" points="253.911,-183.055 244.106,-179.043 249.269,-188.294 253.911,-183.055"/>
</g>
<!-- 114 -->
<g id="node3" class="node"><title>114</title>
<ellipse fill="cyan" stroke="black" cx="384" cy="-162" rx="71.6017" ry="18"/>
<text text-anchor="middle" x="384" y="-157.8" font-family="Times,serif" font-size="14.00">Character Stream</text>
</g>
<!-- 100&#45;&gt;114 -->
<g id="edge2" class="edge"><title>100&#45;&gt;114</title>
<path fill="none" stroke="black" d="M321.754,-218.155C332.231,-208.871 345.948,-196.717 357.837,-186.182"/>
<polygon fill="black" stroke="black" points="360.171,-188.791 365.334,-179.539 355.529,-183.551 360.171,-188.791"/>
</g>
<!-- 120 -->
<g id="node4" class="node"><title>120</title>
<ellipse fill="pink" stroke="black" cx="80" cy="-90" rx="53.2368" ry="18"/>
<text text-anchor="middle" x="80" y="-85.8" font-family="Times,serif" font-size="14.00">InputStream</text>
</g>
<!-- 110&#45;&gt;120 -->
<g id="edge3" class="edge"><title>110&#45;&gt;120</title>
<path fill="none" stroke="black" d="M196.455,-146.834C174.093,-136.113 143.177,-121.291 118.819,-109.612"/>
<polygon fill="black" stroke="black" points="120.032,-106.312 109.501,-105.144 117.005,-112.624 120.032,-106.312"/>
</g>
<!-- 130 -->
<g id="node5" class="node"><title>130</title>
<ellipse fill="pink" stroke="black" cx="226" cy="-90" rx="59.5821" ry="18"/>
<text text-anchor="middle" x="226" y="-85.8" font-family="Times,serif" font-size="14.00">OutputStream</text>
</g>
<!-- 110&#45;&gt;130 -->
<g id="edge4" class="edge"><title>110&#45;&gt;130</title>
<path fill="none" stroke="black" d="M226,-143.697C226,-135.983 226,-126.712 226,-118.112"/>
<polygon fill="black" stroke="black" points="229.5,-118.104 226,-108.104 222.5,-118.104 229.5,-118.104"/>
</g>
<!-- 151 -->
<g id="node8" class="node"><title>151</title>
<ellipse fill="cyan" stroke="black" cx="384" cy="-90" rx="35.2215" ry="18"/>
<text text-anchor="middle" x="384" y="-85.8" font-family="Times,serif" font-size="14.00">Reader</text>
</g>
<!-- 114&#45;&gt;151 -->
<g id="edge7" class="edge"><title>114&#45;&gt;151</title>
<path fill="none" stroke="black" d="M384,-143.697C384,-135.983 384,-126.712 384,-118.112"/>
<polygon fill="black" stroke="black" points="387.5,-118.104 384,-108.104 380.5,-118.104 387.5,-118.104"/>
</g>
<!-- 152 -->
<g id="node9" class="node"><title>152</title>
<ellipse fill="cyan" stroke="black" cx="501" cy="-90" rx="32.2524" ry="18"/>
<text text-anchor="middle" x="501" y="-85.8" font-family="Times,serif" font-size="14.00">Writer</text>
</g>
<!-- 114&#45;&gt;152 -->
<g id="edge8" class="edge"><title>114&#45;&gt;152</title>
<path fill="none" stroke="black" d="M410.549,-145.116C428.511,-134.37 452.269,-120.155 470.929,-108.991"/>
<polygon fill="black" stroke="black" points="472.847,-111.922 479.632,-103.784 469.253,-105.915 472.847,-111.922"/>
</g>
<!-- 141 -->
<g id="node6" class="node"><title>141</title>
<ellipse fill="pink" stroke="black" cx="67" cy="-18" rx="67.3708" ry="18"/>
<text text-anchor="middle" x="67" y="-13.8" font-family="Times,serif" font-size="14.00">FileInputStream</text>
</g>
<!-- 120&#45;&gt;141 -->
<g id="edge5" class="edge"><title>120&#45;&gt;141</title>
<path fill="none" stroke="black" d="M76.7865,-71.6966C75.3539,-63.9827 73.6323,-54.7125 72.0352,-46.1124"/>
<polygon fill="black" stroke="black" points="75.4437,-45.2971 70.1765,-36.1043 68.5614,-46.5753 75.4437,-45.2971"/>
</g>
<!-- 142 -->
<g id="node7" class="node"><title>142</title>
<ellipse fill="pink" stroke="black" cx="226" cy="-18" rx="73.2189" ry="18"/>
<text text-anchor="middle" x="226" y="-13.8" font-family="Times,serif" font-size="14.00">FileOutputStream</text>
</g>
<!-- 130&#45;&gt;142 -->
<g id="edge6" class="edge"><title>130&#45;&gt;142</title>
<path fill="none" stroke="black" d="M226,-71.6966C226,-63.9827 226,-54.7125 226,-46.1124"/>
<polygon fill="black" stroke="black" points="229.5,-46.1043 226,-36.1043 222.5,-46.1044 229.5,-46.1043"/>
</g>
<!-- 161 -->
<g id="node10" class="node"><title>161</title>
<ellipse fill="cyan" stroke="black" cx="384" cy="-18" rx="66.1291" ry="18"/>
<text text-anchor="middle" x="384" y="-13.8" font-family="Times,serif" font-size="14.00">BufferedReader</text>
</g>
<!-- 151&#45;&gt;161 -->
<g id="edge9" class="edge"><title>151&#45;&gt;161</title>
<path fill="none" stroke="black" d="M384,-71.6966C384,-63.9827 384,-54.7125 384,-46.1124"/>
<polygon fill="black" stroke="black" points="387.5,-46.1043 384,-36.1043 380.5,-46.1044 387.5,-46.1043"/>
</g>
<!-- 162 -->
<g id="node11" class="node"><title>162</title>
<ellipse fill="cyan" stroke="black" cx="533" cy="-18" rx="64.1571" ry="18"/>
<text text-anchor="middle" x="533" y="-13.8" font-family="Times,serif" font-size="14.00">BufferedWriter</text>
</g>
<!-- 152&#45;&gt;162 -->
<g id="edge10" class="edge"><title>152&#45;&gt;162</title>
<path fill="none" stroke="black" d="M508.584,-72.411C512.315,-64.2493 516.899,-54.2203 521.084,-45.0653"/>
<polygon fill="black" stroke="black" points="524.274,-46.5061 525.249,-35.9562 517.908,-43.5958 524.274,-46.5061"/>
</g>
</g>
</svg>
