<?xml version="1.0" encoding="UTF-8" standalone="no"?>
<!DOCTYPE svg PUBLIC "-//W3C//DTD SVG 1.1//EN"
 "http://www.w3.org/Graphics/SVG/1.1/DTD/svg11.dtd">
<!-- Generated by graphviz version 2.36.0 (20140111.2315)
 -->
<!-- Title: G Pages: 1 -->
<svg width="291pt" height="818pt"
 viewBox="0.00 0.00 290.72 818.00" xmlns="http://www.w3.org/2000/svg" xmlns:xlink="http://www.w3.org/1999/xlink">
<g id="graph0" class="graph" transform="scale(1 1) rotate(0) translate(4 814)">
<title>G</title>
<polygon fill="white" stroke="none" points="-4,4 -4,-814 286.72,-814 286.72,4 -4,4"/>
<!-- 0 -->
<g id="node1" class="node"><title>0</title>
<ellipse fill="green" stroke="black" cx="206" cy="-792" rx="27" ry="18"/>
<text text-anchor="middle" x="206" y="-787.8" font-family="Times,serif" font-size="14.00" fill="red">0</text>
</g>
<!-- 1 -->
<g id="node2" class="node"><title>1</title>
<ellipse fill="none" stroke="black" cx="176" cy="-706" rx="27" ry="18"/>
<text text-anchor="middle" x="176" y="-701.8" font-family="Times,serif" font-size="14.00">1</text>
</g>
<!-- 0&#45;&gt;1 -->
<g id="edge1" class="edge"><title>0&#45;&gt;1</title>
<path fill="none" stroke="black" d="M200.073,-774.404C195.909,-762.745 190.251,-746.903 185.467,-733.507"/>
<polygon fill="black" stroke="black" points="188.677,-732.089 182.017,-723.849 182.085,-734.443 188.677,-732.089"/>
<text text-anchor="middle" x="196.36" y="-744.8" font-family="Times,serif" font-size="14.00" fill="red">{</text>
</g>
<!-- 1&#45;&gt;0 -->
<g id="edge2" class="edge"><title>1&#45;&gt;0</title>
<path fill="none" stroke="black" d="M174.755,-724.294C174.648,-733.916 175.502,-745.944 179.28,-756 180.897,-760.303 183.228,-764.515 185.849,-768.442"/>
<polygon fill="black" stroke="black" points="183.091,-770.597 191.884,-776.507 188.695,-766.404 183.091,-770.597"/>
<text text-anchor="middle" x="183.36" y="-744.8" font-family="Times,serif" font-size="14.00" fill="red">}</text>
</g>
<!-- 2 -->
<g id="node3" class="node"><title>2</title>
<ellipse fill="none" stroke="black" cx="98" cy="-620" rx="27" ry="18"/>
<text text-anchor="middle" x="98" y="-615.8" font-family="Times,serif" font-size="14.00">2</text>
</g>
<!-- 1&#45;&gt;2 -->
<g id="edge3" class="edge"><title>1&#45;&gt;2</title>
<path fill="none" stroke="black" d="M162.413,-690.368C150.296,-677.319 132.383,-658.027 118.52,-643.099"/>
<polygon fill="black" stroke="black" points="121.062,-640.692 111.693,-635.746 115.932,-645.455 121.062,-640.692"/>
<text text-anchor="middle" x="144.857" y="-658.8" font-family="Times,serif" font-size="14.00" fill="red">&quot;</text>
</g>
<!-- 11 -->
<g id="node4" class="node"><title>11</title>
<ellipse fill="none" stroke="black" cx="131" cy="-534" rx="27" ry="18"/>
<text text-anchor="middle" x="131" y="-529.8" font-family="Times,serif" font-size="14.00">11</text>
</g>
<!-- 2&#45;&gt;11 -->
<g id="edge4" class="edge"><title>2&#45;&gt;11</title>
<path fill="none" stroke="black" d="M104.52,-602.404C109.13,-590.669 115.405,-574.696 120.69,-561.244"/>
<polygon fill="black" stroke="black" points="124.095,-562.149 124.494,-551.561 117.58,-559.589 124.095,-562.149"/>
<text text-anchor="middle" x="130.207" y="-572.8" font-family="Times,serif" font-size="14.00" fill="red">[a&#45;z]</text>
</g>
<!-- 11&#45;&gt;11 -->
<g id="edge5" class="edge"><title>11&#45;&gt;11</title>
<path fill="none" stroke="black" d="M155.532,-541.752C166.508,-542.49 176,-539.906 176,-534 176,-530.032 171.715,-527.563 165.574,-526.594"/>
<polygon fill="black" stroke="black" points="165.647,-523.095 155.532,-526.248 165.406,-530.091 165.647,-523.095"/>
<text text-anchor="middle" x="189.207" y="-529.8" font-family="Times,serif" font-size="14.00" fill="red">[a&#45;z]</text>
</g>
<!-- 10 -->
<g id="node5" class="node"><title>10</title>
<ellipse fill="none" stroke="black" cx="131" cy="-448" rx="27" ry="18"/>
<text text-anchor="middle" x="131" y="-443.8" font-family="Times,serif" font-size="14.00">10</text>
</g>
<!-- 11&#45;&gt;10 -->
<g id="edge6" class="edge"><title>11&#45;&gt;10</title>
<path fill="none" stroke="black" d="M131,-515.595C131,-504.257 131,-489.227 131,-476.315"/>
<polygon fill="black" stroke="black" points="134.5,-476.095 131,-466.095 127.5,-476.095 134.5,-476.095"/>
<text text-anchor="middle" x="133.857" y="-486.8" font-family="Times,serif" font-size="14.00" fill="red">&quot;</text>
</g>
<!-- 8 -->
<g id="node6" class="node"><title>8</title>
<ellipse fill="none" stroke="black" cx="131" cy="-362" rx="27" ry="18"/>
<text text-anchor="middle" x="131" y="-357.8" font-family="Times,serif" font-size="14.00">8</text>
</g>
<!-- 10&#45;&gt;8 -->
<g id="edge7" class="edge"><title>10&#45;&gt;8</title>
<path fill="none" stroke="black" d="M131,-429.595C131,-418.257 131,-403.227 131,-390.315"/>
<polygon fill="black" stroke="black" points="134.5,-390.095 131,-380.095 127.5,-390.095 134.5,-390.095"/>
<text text-anchor="middle" x="132.945" y="-400.8" font-family="Times,serif" font-size="14.00" fill="red">:</text>
</g>
<!-- 8&#45;&gt;2 -->
<g id="edge9" class="edge"><title>8&#45;&gt;2</title>
<path fill="none" stroke="black" d="M119.731,-378.593C111.056,-391.616 99.7692,-411.048 95,-430 80.8595,-486.193 87.6523,-554.782 93.2289,-591.935"/>
<polygon fill="black" stroke="black" points="89.7984,-592.649 94.8235,-601.976 96.7117,-591.551 89.7984,-592.649"/>
<text text-anchor="middle" x="91.3599" y="-486.8" font-family="Times,serif" font-size="14.00" fill="red">{</text>
</g>
<!-- 7 -->
<g id="node7" class="node"><title>7</title>
<ellipse fill="none" stroke="black" cx="131" cy="-276" rx="27" ry="18"/>
<text text-anchor="middle" x="131" y="-271.8" font-family="Times,serif" font-size="14.00">7</text>
</g>
<!-- 8&#45;&gt;7 -->
<g id="edge8" class="edge"><title>8&#45;&gt;7</title>
<path fill="none" stroke="black" d="M131,-343.595C131,-332.257 131,-317.227 131,-304.315"/>
<polygon fill="black" stroke="black" points="134.5,-304.095 131,-294.095 127.5,-304.095 134.5,-304.095"/>
<text text-anchor="middle" x="133.857" y="-314.8" font-family="Times,serif" font-size="14.00" fill="red">&quot;</text>
</g>
<!-- 9 -->
<g id="node8" class="node"><title>9</title>
<ellipse fill="none" stroke="black" cx="212" cy="-276" rx="27" ry="18"/>
<text text-anchor="middle" x="212" y="-271.8" font-family="Times,serif" font-size="14.00">9</text>
</g>
<!-- 8&#45;&gt;9 -->
<g id="edge10" class="edge"><title>8&#45;&gt;9</title>
<path fill="none" stroke="black" d="M145.109,-346.368C157.769,-333.239 176.524,-313.79 190.955,-298.824"/>
<polygon fill="black" stroke="black" points="193.631,-301.092 198.053,-291.464 188.592,-296.233 193.631,-301.092"/>
<text text-anchor="middle" x="179.331" y="-314.8" font-family="Times,serif" font-size="14.00" fill="red">[</text>
</g>
<!-- 6 -->
<g id="node9" class="node"><title>6</title>
<ellipse fill="none" stroke="black" cx="131" cy="-190" rx="27" ry="18"/>
<text text-anchor="middle" x="131" y="-185.8" font-family="Times,serif" font-size="14.00">6</text>
</g>
<!-- 7&#45;&gt;6 -->
<g id="edge12" class="edge"><title>7&#45;&gt;6</title>
<path fill="none" stroke="black" d="M131,-257.595C131,-246.257 131,-231.227 131,-218.315"/>
<polygon fill="black" stroke="black" points="134.5,-218.095 131,-208.095 127.5,-218.095 134.5,-218.095"/>
<text text-anchor="middle" x="144.207" y="-228.8" font-family="Times,serif" font-size="14.00" fill="red">[a&#45;z]</text>
</g>
<!-- 9&#45;&gt;1 -->
<g id="edge11" class="edge"><title>9&#45;&gt;1</title>
<path fill="none" stroke="black" d="M217.794,-293.827C223.056,-310.626 230,-337.286 230,-361 230,-621 230,-621 230,-621 230,-645.212 213.929,-668.006 199.322,-683.723"/>
<polygon fill="black" stroke="black" points="196.422,-681.682 191.91,-691.268 201.415,-686.588 196.422,-681.682"/>
<text text-anchor="middle" x="233.36" y="-486.8" font-family="Times,serif" font-size="14.00" fill="red">}</text>
</g>
<!-- 6&#45;&gt;6 -->
<g id="edge13" class="edge"><title>6&#45;&gt;6</title>
<path fill="none" stroke="black" d="M155.532,-197.752C166.508,-198.49 176,-195.906 176,-190 176,-186.032 171.715,-183.563 165.574,-182.594"/>
<polygon fill="black" stroke="black" points="165.647,-179.095 155.532,-182.248 165.406,-186.091 165.647,-179.095"/>
<text text-anchor="middle" x="189.207" y="-185.8" font-family="Times,serif" font-size="14.00" fill="red">[a&#45;z]</text>
</g>
<!-- 5 -->
<g id="node10" class="node"><title>5</title>
<ellipse fill="none" stroke="black" cx="131" cy="-104" rx="27" ry="18"/>
<text text-anchor="middle" x="131" y="-99.8" font-family="Times,serif" font-size="14.00">5</text>
</g>
<!-- 6&#45;&gt;5 -->
<g id="edge14" class="edge"><title>6&#45;&gt;5</title>
<path fill="none" stroke="black" d="M131,-171.595C131,-160.257 131,-145.227 131,-132.315"/>
<polygon fill="black" stroke="black" points="134.5,-132.095 131,-122.095 127.5,-132.095 134.5,-132.095"/>
<text text-anchor="middle" x="133.857" y="-142.8" font-family="Times,serif" font-size="14.00" fill="red">&quot;</text>
</g>
<!-- 5&#45;&gt;0 -->
<g id="edge16" class="edge"><title>5&#45;&gt;0</title>
<path fill="none" stroke="black" d="M157.258,-108.215C199.043,-114.958 276,-134.742 276,-189 276,-707 276,-707 276,-707 276,-734.739 253.193,-758.18 233.616,-773.191"/>
<polygon fill="black" stroke="black" points="231.526,-770.383 225.499,-779.096 235.644,-776.043 231.526,-770.383"/>
<text text-anchor="middle" x="279.36" y="-443.8" font-family="Times,serif" font-size="14.00" fill="red">}</text>
</g>
<!-- 4 -->
<g id="node11" class="node"><title>4</title>
<ellipse fill="none" stroke="black" cx="38" cy="-18" rx="27" ry="18"/>
<text text-anchor="middle" x="38" y="-13.8" font-family="Times,serif" font-size="14.00">4</text>
</g>
<!-- 5&#45;&gt;4 -->
<g id="edge15" class="edge"><title>5&#45;&gt;4</title>
<path fill="none" stroke="black" d="M115.643,-89.1291C100.835,-75.7539 78.228,-55.3349 61.2205,-39.9734"/>
<polygon fill="black" stroke="black" points="63.1469,-36.997 53.3799,-32.8915 58.4549,-42.1918 63.1469,-36.997"/>
<text text-anchor="middle" x="92.75" y="-56.8" font-family="Times,serif" font-size="14.00" fill="red">,</text>
</g>
<!-- 4&#45;&gt;1 -->
<g id="edge17" class="edge"><title>4&#45;&gt;1</title>
<path fill="none" stroke="black" d="M26.1849,-34.4713C15.0299,-50.65 0,-77.2301 0,-103 0,-621 0,-621 0,-621 0,-681.975 87.1014,-698.731 138.755,-703.306"/>
<polygon fill="black" stroke="black" points="138.646,-706.808 148.886,-704.089 139.185,-699.829 138.646,-706.808"/>
<text text-anchor="middle" x="3.35986" y="-357.8" font-family="Times,serif" font-size="14.00" fill="red">{</text>
</g>
<!-- 4&#45;&gt;2 -->
<g id="edge18" class="edge"><title>4&#45;&gt;2</title>
<path fill="none" stroke="black" d="M38,-36.0534C38,-53.0246 38,-79.8125 38,-103 38,-535 38,-535 38,-535 38,-560.412 56.4079,-583.444 72.8317,-598.936"/>
<polygon fill="black" stroke="black" points="70.8551,-601.864 80.6455,-605.913 75.5174,-596.642 70.8551,-601.864"/>
<text text-anchor="middle" x="40.8574" y="-314.8" font-family="Times,serif" font-size="14.00" fill="red">&quot;</text>
</g>
</g>
</svg>
