<?xml version="1.0" encoding="UTF-8" standalone="no"?>
<!DOCTYPE svg PUBLIC "-//W3C//DTD SVG 1.1//EN"
 "http://www.w3.org/Graphics/SVG/1.1/DTD/svg11.dtd">
<!-- Generated by graphviz version 2.36.0 (20140111.2315)
 -->
<!-- Title: G Pages: 1 -->
<svg width="690pt" height="302pt"
 viewBox="0.00 0.00 690.00 302.00" xmlns="http://www.w3.org/2000/svg" xmlns:xlink="http://www.w3.org/1999/xlink">
<g id="graph0" class="graph" transform="scale(1 1) rotate(0) translate(4 298)">
<title>G</title>
<polygon fill="white" stroke="none" points="-4,4 -4,-298 686,-298 686,4 -4,4"/>
<!-- 100 -->
<g id="node1" class="node"><title>100</title>
<ellipse fill="none" stroke="black" cx="341" cy="-276" rx="46.1593" ry="18"/>
<text text-anchor="middle" x="341" y="-271.8" font-family="Times,serif" font-size="14.00">perm(abc)</text>
</g>
<!-- 101 -->
<g id="node2" class="node"><title>101</title>
<ellipse fill="none" stroke="black" cx="166" cy="-190" rx="55.2742" ry="18"/>
<text text-anchor="middle" x="166" y="-185.8" font-family="Times,serif" font-size="14.00">a + perm(bc)</text>
</g>
<!-- 100&#45;&gt;101 -->
<g id="edge1" class="edge"><title>100&#45;&gt;101</title>
<path fill="none" stroke="black" d="M312.883,-261.504C283.688,-247.49 237.792,-225.46 205.078,-209.757"/>
<polygon fill="black" stroke="black" points="206.334,-206.478 195.804,-205.306 203.305,-212.789 206.334,-206.478"/>
<text text-anchor="middle" x="276.633" y="-228.8" font-family="Times,serif" font-size="14.00">rm a</text>
</g>
<!-- 102 -->
<g id="node3" class="node"><title>102</title>
<ellipse fill="none" stroke="black" cx="341" cy="-190" rx="55.2742" ry="18"/>
<text text-anchor="middle" x="341" y="-185.8" font-family="Times,serif" font-size="14.00">b + perm(ac)</text>
</g>
<!-- 100&#45;&gt;102 -->
<g id="edge2" class="edge"><title>100&#45;&gt;102</title>
<path fill="none" stroke="black" d="M341,-257.595C341,-246.257 341,-231.227 341,-218.315"/>
<polygon fill="black" stroke="black" points="344.5,-218.095 341,-208.095 337.5,-218.095 344.5,-218.095"/>
<text text-anchor="middle" x="354.026" y="-228.8" font-family="Times,serif" font-size="14.00">rm b</text>
</g>
<!-- 103 -->
<g id="node4" class="node"><title>103</title>
<ellipse fill="none" stroke="black" cx="516" cy="-190" rx="55.2742" ry="18"/>
<text text-anchor="middle" x="516" y="-185.8" font-family="Times,serif" font-size="14.00">c + perm(ab)</text>
</g>
<!-- 100&#45;&gt;103 -->
<g id="edge3" class="edge"><title>100&#45;&gt;103</title>
<path fill="none" stroke="black" d="M369.117,-261.504C398.312,-247.49 444.208,-225.46 476.922,-209.757"/>
<polygon fill="black" stroke="black" points="478.695,-212.789 486.196,-205.306 475.666,-206.478 478.695,-212.789"/>
<text text-anchor="middle" x="451.633" y="-228.8" font-family="Times,serif" font-size="14.00">rm c</text>
</g>
<!-- 1000 -->
<g id="node5" class="node"><title>1000</title>
<ellipse fill="none" stroke="black" cx="49" cy="-104" rx="49.568" ry="18"/>
<text text-anchor="middle" x="49" y="-99.8" font-family="Times,serif" font-size="14.00">b +perm(c)</text>
</g>
<!-- 101&#45;&gt;1000 -->
<g id="edge4" class="edge"><title>101&#45;&gt;1000</title>
<path fill="none" stroke="black" d="M144.267,-173.397C125.879,-160.195 99.3406,-141.142 78.9413,-126.496"/>
<polygon fill="black" stroke="black" points="80.7807,-123.508 70.6162,-120.519 76.6982,-129.195 80.7807,-123.508"/>
<text text-anchor="middle" x="128.026" y="-142.8" font-family="Times,serif" font-size="14.00">rm b</text>
</g>
<!-- 1001 -->
<g id="node6" class="node"><title>1001</title>
<ellipse fill="none" stroke="black" cx="166" cy="-104" rx="49.568" ry="18"/>
<text text-anchor="middle" x="166" y="-99.8" font-family="Times,serif" font-size="14.00">c +perm(b)</text>
</g>
<!-- 101&#45;&gt;1001 -->
<g id="edge5" class="edge"><title>101&#45;&gt;1001</title>
<path fill="none" stroke="black" d="M166,-171.595C166,-160.257 166,-145.227 166,-132.315"/>
<polygon fill="black" stroke="black" points="169.5,-132.095 166,-122.095 162.5,-132.095 169.5,-132.095"/>
<text text-anchor="middle" x="178.633" y="-142.8" font-family="Times,serif" font-size="14.00">rm c</text>
</g>
<!-- 2000 -->
<g id="node7" class="node"><title>2000</title>
<ellipse fill="none" stroke="black" cx="283" cy="-104" rx="49.3242" ry="18"/>
<text text-anchor="middle" x="283" y="-99.8" font-family="Times,serif" font-size="14.00">a +perm(c)</text>
</g>
<!-- 102&#45;&gt;2000 -->
<g id="edge6" class="edge"><title>102&#45;&gt;2000</title>
<path fill="none" stroke="black" d="M329.263,-172.001C320.954,-159.968 309.672,-143.629 300.33,-130.099"/>
<polygon fill="black" stroke="black" points="303.084,-127.927 294.522,-121.687 297.324,-131.904 303.084,-127.927"/>
<text text-anchor="middle" x="328.633" y="-142.8" font-family="Times,serif" font-size="14.00">rm a</text>
</g>
<!-- 2001 -->
<g id="node8" class="node"><title>2001</title>
<ellipse fill="none" stroke="black" cx="399" cy="-104" rx="49.3242" ry="18"/>
<text text-anchor="middle" x="399" y="-99.8" font-family="Times,serif" font-size="14.00">c +perm(a)</text>
</g>
<!-- 102&#45;&gt;2001 -->
<g id="edge7" class="edge"><title>102&#45;&gt;2001</title>
<path fill="none" stroke="black" d="M352.737,-172.001C361.046,-159.968 372.328,-143.629 381.67,-130.099"/>
<polygon fill="black" stroke="black" points="384.676,-131.904 387.478,-121.687 378.916,-127.927 384.676,-131.904"/>
<text text-anchor="middle" x="386.633" y="-142.8" font-family="Times,serif" font-size="14.00">rm c</text>
</g>
<!-- 3000 -->
<g id="node9" class="node"><title>3000</title>
<ellipse fill="none" stroke="black" cx="516" cy="-104" rx="49.568" ry="18"/>
<text text-anchor="middle" x="516" y="-99.8" font-family="Times,serif" font-size="14.00">a +perm(b)</text>
</g>
<!-- 103&#45;&gt;3000 -->
<g id="edge8" class="edge"><title>103&#45;&gt;3000</title>
<path fill="none" stroke="black" d="M516,-171.595C516,-160.257 516,-145.227 516,-132.315"/>
<polygon fill="black" stroke="black" points="519.5,-132.095 516,-122.095 512.5,-132.095 519.5,-132.095"/>
<text text-anchor="middle" x="528.633" y="-142.8" font-family="Times,serif" font-size="14.00">rm a</text>
</g>
<!-- 3001 -->
<g id="node10" class="node"><title>3001</title>
<ellipse fill="none" stroke="black" cx="633" cy="-104" rx="49.568" ry="18"/>
<text text-anchor="middle" x="633" y="-99.8" font-family="Times,serif" font-size="14.00">b +perm(a)</text>
</g>
<!-- 103&#45;&gt;3001 -->
<g id="edge9" class="edge"><title>103&#45;&gt;3001</title>
<path fill="none" stroke="black" d="M537.733,-173.397C556.121,-160.195 582.659,-141.142 603.059,-126.496"/>
<polygon fill="black" stroke="black" points="605.302,-129.195 611.384,-120.519 601.219,-123.508 605.302,-129.195"/>
<text text-anchor="middle" x="595.026" y="-142.8" font-family="Times,serif" font-size="14.00">rm b</text>
</g>
<!-- 4000 -->
<g id="node11" class="node"><title>4000</title>
<ellipse fill="green" stroke="black" cx="49" cy="-18" rx="39.9566" ry="18"/>
<text text-anchor="middle" x="49" y="-13.8" font-family="Times,serif" font-size="14.00">c perm()</text>
</g>
<!-- 1000&#45;&gt;4000 -->
<g id="edge10" class="edge"><title>1000&#45;&gt;4000</title>
<path fill="none" stroke="black" d="M49,-85.5951C49,-74.2572 49,-59.2271 49,-46.3153"/>
<polygon fill="black" stroke="black" points="52.5001,-46.0951 49,-36.0952 45.5001,-46.0952 52.5001,-46.0951"/>
<text text-anchor="middle" x="61.6328" y="-56.8" font-family="Times,serif" font-size="14.00">rm c</text>
</g>
<!-- 5000 -->
<g id="node12" class="node"><title>5000</title>
<ellipse fill="green" stroke="black" cx="166" cy="-18" rx="40.2027" ry="18"/>
<text text-anchor="middle" x="166" y="-13.8" font-family="Times,serif" font-size="14.00">b perm()</text>
</g>
<!-- 1001&#45;&gt;5000 -->
<g id="edge11" class="edge"><title>1001&#45;&gt;5000</title>
<path fill="none" stroke="black" d="M166,-85.5951C166,-74.2572 166,-59.2271 166,-46.3153"/>
<polygon fill="black" stroke="black" points="169.5,-46.0951 166,-36.0952 162.5,-46.0952 169.5,-46.0951"/>
<text text-anchor="middle" x="179.026" y="-56.8" font-family="Times,serif" font-size="14.00">rm b</text>
</g>
<!-- 6000 -->
<g id="node13" class="node"><title>6000</title>
<ellipse fill="green" stroke="black" cx="283" cy="-18" rx="39.9566" ry="18"/>
<text text-anchor="middle" x="283" y="-13.8" font-family="Times,serif" font-size="14.00">c perm()</text>
</g>
<!-- 2000&#45;&gt;6000 -->
<g id="edge12" class="edge"><title>2000&#45;&gt;6000</title>
<path fill="none" stroke="black" d="M283,-85.5951C283,-74.2572 283,-59.2271 283,-46.3153"/>
<polygon fill="black" stroke="black" points="286.5,-46.0951 283,-36.0952 279.5,-46.0952 286.5,-46.0951"/>
<text text-anchor="middle" x="295.633" y="-56.8" font-family="Times,serif" font-size="14.00">rm c</text>
</g>
<!-- 7000 -->
<g id="node14" class="node"><title>7000</title>
<ellipse fill="green" stroke="black" cx="399" cy="-18" rx="39.9566" ry="18"/>
<text text-anchor="middle" x="399" y="-13.8" font-family="Times,serif" font-size="14.00">a perm()</text>
</g>
<!-- 2001&#45;&gt;7000 -->
<g id="edge13" class="edge"><title>2001&#45;&gt;7000</title>
<path fill="none" stroke="black" d="M399,-85.5951C399,-74.2572 399,-59.2271 399,-46.3153"/>
<polygon fill="black" stroke="black" points="402.5,-46.0951 399,-36.0952 395.5,-46.0952 402.5,-46.0951"/>
<text text-anchor="middle" x="411.633" y="-56.8" font-family="Times,serif" font-size="14.00">rm a</text>
</g>
<!-- 8000 -->
<g id="node15" class="node"><title>8000</title>
<ellipse fill="green" stroke="black" cx="516" cy="-18" rx="40.2027" ry="18"/>
<text text-anchor="middle" x="516" y="-13.8" font-family="Times,serif" font-size="14.00">b perm()</text>
</g>
<!-- 3000&#45;&gt;8000 -->
<g id="edge14" class="edge"><title>3000&#45;&gt;8000</title>
<path fill="none" stroke="black" d="M516,-85.5951C516,-74.2572 516,-59.2271 516,-46.3153"/>
<polygon fill="black" stroke="black" points="519.5,-46.0951 516,-36.0952 512.5,-46.0952 519.5,-46.0951"/>
<text text-anchor="middle" x="529.026" y="-56.8" font-family="Times,serif" font-size="14.00">rm b</text>
</g>
<!-- 9000 -->
<g id="node16" class="node"><title>9000</title>
<ellipse fill="green" stroke="black" cx="633" cy="-18" rx="39.9566" ry="18"/>
<text text-anchor="middle" x="633" y="-13.8" font-family="Times,serif" font-size="14.00">a perm()</text>
</g>
<!-- 3001&#45;&gt;9000 -->
<g id="edge15" class="edge"><title>3001&#45;&gt;9000</title>
<path fill="none" stroke="black" d="M633,-85.5951C633,-74.2572 633,-59.2271 633,-46.3153"/>
<polygon fill="black" stroke="black" points="636.5,-46.0951 633,-36.0952 629.5,-46.0952 636.5,-46.0951"/>
<text text-anchor="middle" x="645.633" y="-56.8" font-family="Times,serif" font-size="14.00">rm a</text>
</g>
</g>
</svg>
