<?xml version="1.0" encoding="UTF-8" standalone="no"?>
<!-- Created with Inkscape (http://www.inkscape.org/) -->

<svg
   xmlns:dc="http://purl.org/dc/elements/1.1/"
   xmlns:cc="http://creativecommons.org/ns#"
   xmlns:rdf="http://www.w3.org/1999/02/22-rdf-syntax-ns#"
   xmlns:svg="http://www.w3.org/2000/svg"
   xmlns="http://www.w3.org/2000/svg"
   xmlns:sodipodi="http://sodipodi.sourceforge.net/DTD/sodipodi-0.dtd"
   xmlns:inkscape="http://www.inkscape.org/namespaces/inkscape"
   width="600"
   height="600"
   viewBox="0 0 599.99998 599.99998"
   id="svg2"
   version="1.1"
   inkscape:version="0.91 r13725"
   sodipodi:docname="pyramid.svg">
  <defs
     id="defs4" />
  <sodipodi:namedview
     id="base"
     pagecolor="#ffffff"
     bordercolor="#666666"
     borderopacity="1.0"
     inkscape:pageopacity="0.0"
     inkscape:pageshadow="2"
     inkscape:zoom="0.98994949"
     inkscape:cx="257.63408"
     inkscape:cy="325.1502"
     inkscape:document-units="px"
     inkscape:current-layer="layer1"
     showgrid="false"
     inkscape:window-width="1440"
     inkscape:window-height="807"
     inkscape:window-x="7"
     inkscape:window-y="0"
     inkscape:window-maximized="0"
     units="px" />
  <metadata
     id="metadata7">
    <rdf:RDF>
      <cc:Work
         rdf:about="">
        <dc:format>image/svg+xml</dc:format>
        <dc:type
           rdf:resource="http://purl.org/dc/dcmitype/StillImage" />
        <dc:title></dc:title>
      </cc:Work>
    </rdf:RDF>
  </metadata>
  <g
     inkscape:label="Layer 1"
     inkscape:groupmode="layer"
     id="layer1"
     transform="translate(0,-452.36225)">
    <path
       style="fill:none;fill-rule:evenodd;stroke:#000000;stroke-width:1px;stroke-linecap:butt;stroke-linejoin:miter;stroke-opacity:1"
       d="M 21.578695,773.83927 C 594.33519,783.9408 593.32504,783.9408 593.32504,783.9408"
       id="path4136"
       inkscape:connector-curvature="0" />
    <path
       style="fill:none;fill-rule:evenodd;stroke:#000000;stroke-width:1px;stroke-linecap:butt;stroke-linejoin:miter;stroke-opacity:1"
       d="m 278.15744,495.03717 -8.08122,525.27933"
       id="path4138"
       inkscape:connector-curvature="0" />
    <path
       style="fill:none;fill-rule:evenodd;stroke:#000000;stroke-width:1px;stroke-linecap:butt;stroke-linejoin:miter;stroke-opacity:1"
       d="m 274.11683,613.22502 c 159.6041,168.69547 159.6041,167.68532 159.6041,167.68532 l 0,0"
       id="path4140"
       inkscape:connector-curvature="0" />
    <path
       style="fill:none;fill-rule:evenodd;stroke:#000000;stroke-width:1px;stroke-linecap:butt;stroke-linejoin:miter;stroke-opacity:1"
       d="m 420.58895,680.90524 c 12.12183,96.97464 12.12183,97.98479 12.12183,97.98479"
       id="path4142"
       inkscape:connector-curvature="0" />
    <path
       style="fill:none;fill-rule:evenodd;stroke:#000000;stroke-width:1px;stroke-linecap:butt;stroke-linejoin:miter;stroke-opacity:1"
       d="m 276.13714,612.21486 c 145.46196,71.72083 145.46196,72.73099 145.46196,72.73099 l -1.01015,-1.01016 1.01015,0"
       id="path4144"
       inkscape:connector-curvature="0" />
    <text
       xml:space="preserve"
       style="font-style:normal;font-variant:normal;font-weight:100;font-stretch:normal;font-size:37.5px;line-height:125%;font-family:Skia;-inkscape-font-specification:'Skia Thin';letter-spacing:0px;word-spacing:0px;fill:#000000;fill-opacity:1;stroke:none;stroke-width:1px;stroke-linecap:butt;stroke-linejoin:miter;stroke-opacity:1"
       x="278.15744"
       y="809.19458"
       id="text4146"
       sodipodi:linespacing="125%"><tspan
         sodipodi:role="line"
         id="tspan4148"
         x="278.15744"
         y="809.19458">v1</tspan></text>
    <text
       xml:space="preserve"
       style="font-style:normal;font-weight:normal;font-size:40px;line-height:125%;font-family:sans-serif;letter-spacing:0px;word-spacing:0px;fill:#000000;fill-opacity:1;stroke:none;stroke-width:1px;stroke-linecap:butt;stroke-linejoin:miter;stroke-opacity:1"
       x="434.73108"
       y="814.24536"
       id="text4150"
       sodipodi:linespacing="125%"><tspan
         sodipodi:role="line"
         id="tspan4152"
         x="434.73108"
         y="814.24536"
         style="font-size:37.5px">v2</tspan></text>
    <text
       xml:space="preserve"
       style="font-style:normal;font-weight:normal;font-size:40px;line-height:125%;font-family:sans-serif;letter-spacing:0px;word-spacing:0px;fill:#000000;fill-opacity:1;stroke:none;stroke-width:1px;stroke-linecap:butt;stroke-linejoin:miter;stroke-opacity:1"
       x="201.38585"
       y="608.17426"
       id="text4154"
       sodipodi:linespacing="125%"><tspan
         sodipodi:role="line"
         id="tspan4156"
         x="201.38585"
         y="608.17426">v3</tspan></text>
    <text
       xml:space="preserve"
       style="font-style:normal;font-weight:normal;font-size:40px;line-height:125%;font-family:sans-serif;letter-spacing:0px;word-spacing:0px;fill:#000000;fill-opacity:1;stroke:none;stroke-width:1px;stroke-linecap:butt;stroke-linejoin:miter;stroke-opacity:1"
       x="424.62958"
       y="689.99658"
       id="text4158"
       sodipodi:linespacing="125%"><tspan
         sodipodi:role="line"
         id="tspan4160"
         x="424.62958"
         y="689.99658">v4</tspan></text>
    <path
       style="fill:none;fill-rule:evenodd;stroke:#000000;stroke-width:1px;stroke-linecap:butt;stroke-linejoin:miter;stroke-opacity:1"
       d="M 274.11683,776.86973 C 419.5788,683.93569 419.5788,683.93569 419.5788,683.93569"
       id="path4162"
       inkscape:connector-curvature="0" />
    <path
       style="fill:#de8787;fill-opacity:1;fill-rule:nonzero"
       id="path4164"
       d="m 363.74125,902.00439 c 21.09085,-11.91834 12.03606,-8.74941 8.48489,-3.01869 -1.68128,3.46125 -1.24388,7.36922 -0.8384,11.0676 0.42622,2.91592 1.43924,5.71885 3.09007,8.15951 1.81963,2.65842 4.77062,3.81436 7.73997,4.70438 4.26423,1.59694 8.65546,2.79543 13.1404,3.56801 3.65788,0.93631 7.40368,1.31078 11.16158,1.52816 4.42734,0.17564 8.85953,0.1795 13.2897,0.18206 4.6301,-0.0122 9.26019,-0.0134 13.8903,-0.0262 0.72381,-0.0529 1.4548,-0.044 2.17142,-0.15862 1.40907,-0.22543 2.58151,-0.67367 3.83403,-1.34573 0.63257,-0.33941 2.45654,-1.48555 1.82829,-1.13821 -10.04074,5.55117 -13.87719,8.24912 -8.26741,4.42902 4.28353,-2.95451 8.04608,-6.56657 11.66433,-10.28461 3.25781,-3.21333 4.39649,-7.28226 5.07863,-11.6657 0.58152,-3.88002 0.46434,-7.76292 -0.0233,-11.63866 -0.74268,-2.98207 -1.56008,-5.9885 -2.83636,-8.79107 -1.59386,-2.99042 -4.39852,-4.91469 -7.23678,-6.61088 -2.47936,-1.64062 -5.29584,-2.60916 -7.98857,-3.82405 -1.50786,-1.36631 -3.42322,-1.46601 -5.26833,-2.02847 -2.08605,-0.62669 -4.27126,-0.78097 -6.43493,-0.89258 -1.44768,-0.0453 -0.72324,-0.0277 -2.17333,-0.0528 0,0 12.03147,-8.69303 12.03147,-8.69303 l 0,0 c 1.47183,0.052 0.73488,0.0191 2.21083,0.0986 2.23466,0.17972 4.46964,0.4858 6.6224,1.13215 1.93448,0.4814 3.78891,0.99599 5.38542,2.25514 2.66831,1.32108 5.48612,2.36879 7.96271,4.0506 2.99872,1.96909 5.92768,4.11062 7.72077,7.30752 1.38666,2.93016 2.13869,6.10432 2.89725,9.24608 0.64668,4.00973 0.76527,8.01686 0.15731,12.0491 -0.67251,4.54929 -1.43062,9.01092 -4.7095,12.48947 -3.66016,3.74686 -7.39234,7.46184 -11.62282,10.56995 -6.42852,4.50466 -2.73216,1.99271 -16.47903,9.98738 -2.55209,1.4842 -5.3265,2.11344 -8.27047,2.04471 -4.61973,-0.005 -9.23941,0.007 -13.85913,10e-4 -4.4783,-0.003 -8.96001,0.0371 -13.43431,-0.18621 -3.79046,-0.24441 -7.55115,-0.75075 -11.2351,-1.70289 -4.49657,-0.93821 -8.9097,-2.20607 -13.25352,-3.70065 -3.28656,-1.09722 -6.46181,-2.4737 -8.49727,-5.42297 -1.6921,-2.71662 -2.71431,-5.72271 -3.14857,-8.9063 -0.43507,-3.88311 -1.06059,-7.92685 0.19924,-11.72187 2.9935,-6.80628 10.29817,-8.91134 16.72958,-12.43003 0,0 -11.71349,9.36969 -11.71349,9.36969 z"
       inkscape:connector-curvature="0" />
    <path
       style="fill:#de8787;fill-opacity:1;fill-rule:nonzero"
       id="path4166"
       d="m 438.49254,863.61859 c -2.42919,1.12181 -4.82156,2.29048 -7.12932,3.64757 -0.37498,0.18975 -1.48851,0.78005 -1.12494,0.56926 3.9012,-2.26185 7.81903,-4.49495 11.73943,-6.72334 0.29379,-0.167 -0.56587,0.37026 -0.85883,0.5387 -4.52475,2.60149 -9.03018,5.23769 -13.59362,7.77069 -1.18544,0.36592 -0.63719,0.12484 -1.65395,0.70195 4.01135,-2.29328 8.018,-4.59479 12.03405,-6.87982 0.25915,-0.14745 -0.50498,0.31738 -0.76296,0.46687 -4.47721,2.59426 -8.94084,5.21237 -13.44235,7.76422 -0.60458,0.34273 -1.43138,0.51385 -2.07955,0.77238 -1.99567,0.68086 -3.95684,1.50006 -5.89061,2.35293 -1.77797,1.08947 -3.8094,1.63823 -5.65575,2.56821 -1.71918,0.76678 -3.60122,0.90281 -5.45499,1.00428 -0.99546,0.0436 -1.99191,0.0491 -2.9881,0.0568 0,0 12.01569,-8.7614 12.01569,-8.7614 l 0,0 c 0.98013,-0.0261 1.96115,-0.0488 2.93782,-0.1431 1.79738,-0.20582 3.54665,-0.57792 5.1707,-1.41244 1.90791,-0.73876 3.71643,-1.66973 5.5873,-2.49423 1.98877,-0.83875 3.9959,-1.63217 6.01134,-2.40367 0.41617,-0.16988 0.90694,-0.3566 1.31212,-0.56713 0.21767,-0.11311 0.852,-0.4867 0.63969,-0.36384 -4.02258,2.32782 -8.04852,4.64981 -12.07048,6.97869 -0.25542,0.1479 0.51389,-0.29047 0.77084,-0.43571 4.50825,-2.60018 9.0165,-5.20037 13.52475,-7.80055 0.5436,-0.21772 2.11145,-1.00738 1.60653,-0.71078 -25.40343,14.92252 -4.21149,2.1939 3.7223,-2.1363 2.42202,-1.2984 4.9041,-2.47109 7.34638,-3.72991 0,0 -11.71349,9.36968 -11.71349,9.36968 z"
       inkscape:connector-curvature="0" />
    <path
       style="fill:#de8787;fill-opacity:1;fill-rule:nonzero"
       id="path4168"
       d="m 416.0523,871.22303 c 2.62189,-1.08131 5.37372,-1.74856 8.15608,-2.26082 2.38057,-0.32723 4.80039,-0.83373 7.08972,0.0728 1.64051,1.12302 3.18586,2.39084 4.66028,3.72122 1.31599,0.9642 2.37918,2.22156 3.45769,3.4347 0.7381,1.13604 1.86642,1.85199 2.68441,2.90956 0,0 -12.83851,7.68475 -12.83851,7.68475 l 0,0 c -0.84646,-0.97684 -1.91583,-1.74785 -2.62864,-2.85083 -1.05754,-1.15472 -2.04645,-2.38542 -3.30888,-3.33096 -1.342,-1.16566 -2.71278,-2.39588 -4.32236,-3.17126 -2.17024,-0.3947 -4.39181,0.0924 -6.54288,0.42375 -2.84702,0.60957 -5.57252,1.55815 -8.34865,2.40875 0,0 11.94174,-9.04163 11.94174,-9.04163 z"
       inkscape:connector-curvature="0" />
    <path
       style="fill:#de8787;fill-opacity:1;fill-rule:nonzero"
       id="path4170"
       d="m 374.65248,892.44938 c -1.03509,1.82531 -1.44298,3.88916 -1.73238,5.9424 -0.22849,2.02597 -0.27495,4.06835 -0.25406,6.10547 0.0455,1.62786 0.65698,3.10529 1.18619,4.61394 0.55691,1.39492 0.62731,2.89699 1.02682,4.33361 0.42559,1.64938 0.98569,3.25675 1.65688,4.82058 0.57799,0.82822 0.9826,1.75151 1.52942,2.59639 0,0 -12.90809,7.52035 -12.90809,7.52035 l 0,0 c -0.57067,-0.92343 -1.03653,-1.90212 -1.62278,-2.81825 -0.68538,-1.61982 -1.28772,-3.27631 -1.77472,-4.96543 -0.41899,-1.41595 -0.55574,-2.85749 -0.97031,-4.27329 -0.56991,-1.66944 -1.24223,-3.28995 -1.4009,-5.07194 0.0439,-2.09772 0.0241,-4.19986 0.22737,-6.29081 0.23944,-2.15277 0.60433,-4.29328 1.3703,-6.32997 0,0 13.66626,-6.18305 13.66626,-6.18305 z"
       inkscape:connector-curvature="0" />
  </g>
</svg>
