<?xml version="1.0" encoding="UTF-8" standalone="no"?>
<!DOCTYPE svg PUBLIC "-//W3C//DTD SVG 1.1//EN"
 "http://www.w3.org/Graphics/SVG/1.1/DTD/svg11.dtd">
<!-- Generated by graphviz version 2.36.0 (20140111.2315)
 -->
<!-- Title: G Pages: 1 -->
<svg width="278pt" height="216pt"
 viewBox="0.00 0.00 278.00 216.00" xmlns="http://www.w3.org/2000/svg" xmlns:xlink="http://www.w3.org/1999/xlink">
<g id="graph0" class="graph" transform="scale(1 1) rotate(0) translate(4 212)">
<title>G</title>
<polygon fill="white" stroke="none" points="-4,4 -4,-212 274,-212 274,4 -4,4"/>
<!-- 100 -->
<g id="node1" class="node"><title>100</title>
<ellipse fill="none" stroke="black" cx="140" cy="-190" rx="27" ry="18"/>
<text text-anchor="middle" x="140" y="-185.8" font-family="Times,serif" font-size="14.00">[a b]</text>
</g>
<!-- 108 -->
<g id="node2" class="node"><title>108</title>
<ellipse fill="none" stroke="black" cx="99" cy="-104" rx="27" ry="18"/>
<text text-anchor="middle" x="99" y="-99.8" font-family="Times,serif" font-size="14.00">[a c]</text>
</g>
<!-- 100&#45;&gt;108 -->
<g id="edge1" class="edge"><title>100&#45;&gt;108</title>
<path fill="none" stroke="black" d="M131.9,-172.404C126.078,-160.477 118.12,-144.172 111.488,-130.586"/>
<polygon fill="black" stroke="black" points="114.476,-128.727 106.944,-121.275 108.185,-131.797 114.476,-128.727"/>
<text text-anchor="middle" x="125.107" y="-142.8" font-family="Times,serif" font-size="14.00">a</text>
</g>
<!-- 109 -->
<g id="node3" class="node"><title>109</title>
<ellipse fill="none" stroke="black" cx="171" cy="-104" rx="27" ry="18"/>
<text text-anchor="middle" x="171" y="-99.8" font-family="Times,serif" font-size="14.00">[a b]</text>
</g>
<!-- 100&#45;&gt;109 -->
<g id="edge2" class="edge"><title>100&#45;&gt;109</title>
<path fill="none" stroke="black" d="M146.125,-172.404C150.455,-160.669 156.35,-144.696 161.315,-131.244"/>
<polygon fill="black" stroke="black" points="164.709,-132.155 164.888,-121.561 158.142,-129.731 164.709,-132.155"/>
<text text-anchor="middle" x="160.5" y="-142.8" font-family="Times,serif" font-size="14.00">b</text>
</g>
<!-- aa -->
<g id="node4" class="node"><title>aa</title>
<ellipse fill="none" stroke="black" cx="27" cy="-18" rx="27" ry="18"/>
<text text-anchor="middle" x="27" y="-13.8" font-family="Times,serif" font-size="14.00">aa</text>
</g>
<!-- 108&#45;&gt;aa -->
<g id="edge3" class="edge"><title>108&#45;&gt;aa</title>
<path fill="none" stroke="black" d="M86.1278,-87.9825C75.0702,-75.0819 58.9641,-56.2914 46.353,-41.5785"/>
<polygon fill="black" stroke="black" points="48.9261,-39.2023 39.7607,-33.8875 43.6113,-43.7579 48.9261,-39.2023"/>
<text text-anchor="middle" x="71.1069" y="-56.8" font-family="Times,serif" font-size="14.00">a</text>
</g>
<!-- ac -->
<g id="node5" class="node"><title>ac</title>
<ellipse fill="none" stroke="black" cx="99" cy="-18" rx="27" ry="18"/>
<text text-anchor="middle" x="99" y="-13.8" font-family="Times,serif" font-size="14.00">ac</text>
</g>
<!-- 108&#45;&gt;ac -->
<g id="edge4" class="edge"><title>108&#45;&gt;ac</title>
<path fill="none" stroke="black" d="M99,-85.5951C99,-74.2572 99,-59.2271 99,-46.3153"/>
<polygon fill="black" stroke="black" points="102.5,-46.0951 99,-36.0952 95.5001,-46.0952 102.5,-46.0951"/>
<text text-anchor="middle" x="102.107" y="-56.8" font-family="Times,serif" font-size="14.00">c</text>
</g>
<!-- ba -->
<g id="node6" class="node"><title>ba</title>
<ellipse fill="none" stroke="black" cx="171" cy="-18" rx="27" ry="18"/>
<text text-anchor="middle" x="171" y="-13.8" font-family="Times,serif" font-size="14.00">ba</text>
</g>
<!-- 109&#45;&gt;ba -->
<g id="edge5" class="edge"><title>109&#45;&gt;ba</title>
<path fill="none" stroke="black" d="M171,-85.5951C171,-74.2572 171,-59.2271 171,-46.3153"/>
<polygon fill="black" stroke="black" points="174.5,-46.0951 171,-36.0952 167.5,-46.0952 174.5,-46.0951"/>
<text text-anchor="middle" x="174.107" y="-56.8" font-family="Times,serif" font-size="14.00">a</text>
</g>
<!-- bb -->
<g id="node7" class="node"><title>bb</title>
<ellipse fill="none" stroke="black" cx="243" cy="-18" rx="27" ry="18"/>
<text text-anchor="middle" x="243" y="-13.8" font-family="Times,serif" font-size="14.00">bb</text>
</g>
<!-- 109&#45;&gt;bb -->
<g id="edge6" class="edge"><title>109&#45;&gt;bb</title>
<path fill="none" stroke="black" d="M183.872,-87.9825C194.93,-75.0819 211.036,-56.2914 223.647,-41.5785"/>
<polygon fill="black" stroke="black" points="226.389,-43.7579 230.239,-33.8875 221.074,-39.2023 226.389,-43.7579"/>
<text text-anchor="middle" x="214.5" y="-56.8" font-family="Times,serif" font-size="14.00">b</text>
</g>
</g>
</svg>
