<?xml version="1.0" encoding="UTF-8" standalone="no"?>
<!DOCTYPE svg PUBLIC "-//W3C//DTD SVG 1.1//EN"
 "http://www.w3.org/Graphics/SVG/1.1/DTD/svg11.dtd">
<!-- Generated by graphviz version 2.36.0 (20140111.2315)
 -->
<!-- Title: G Pages: 1 -->
<svg width="1504pt" height="188pt"
 viewBox="0.00 0.00 1504.00 188.00" xmlns="http://www.w3.org/2000/svg" xmlns:xlink="http://www.w3.org/1999/xlink">
<g id="graph0" class="graph" transform="scale(1 1) rotate(0) translate(4 184)">
<title>G</title>
<polygon fill="white" stroke="none" points="-4,4 -4,-184 1500,-184 1500,4 -4,4"/>
<!-- two_stack -->
<g id="node1" class="node"><title>two_stack</title>
<ellipse fill="none" stroke="black" cx="299" cy="-162" rx="45.4469" ry="18"/>
<text text-anchor="middle" x="299" y="-157.8" font-family="Times,serif" font-size="14.00">two_stack</text>
</g>
<!-- post_order -->
<g id="node2" class="node"><title>post_order</title>
<ellipse fill="none" stroke="black" cx="80" cy="-90" rx="47.3944" ry="18"/>
<text text-anchor="middle" x="80" y="-85.8" font-family="Times,serif" font-size="14.00">post_order</text>
</g>
<!-- two_stack&#45;&gt;post_order -->
<g id="edge1" class="edge"><title>two_stack&#45;&gt;post_order</title>
<path fill="none" stroke="black" d="M264.781,-150.062C227.026,-137.995 166.129,-118.53 124.645,-105.27"/>
<polygon fill="black" stroke="black" points="125.656,-101.919 115.065,-102.208 123.524,-108.586 125.656,-101.919"/>
</g>
<!-- print_sequence -->
<g id="node4" class="node"><title>print_sequence</title>
<ellipse fill="none" stroke="black" cx="210" cy="-90" rx="63.457" ry="18"/>
<text text-anchor="middle" x="210" y="-85.8" font-family="Times,serif" font-size="14.00">print_sequence</text>
</g>
<!-- two_stack&#45;&gt;print_sequence -->
<g id="edge3" class="edge"><title>two_stack&#45;&gt;print_sequence</title>
<path fill="none" stroke="black" d="M279.248,-145.465C267.289,-136.058 251.832,-123.902 238.558,-113.461"/>
<polygon fill="black" stroke="black" points="240.648,-110.653 230.625,-107.222 236.321,-116.155 240.648,-110.653"/>
</g>
<!-- deserialize_general_tree -->
<g id="node5" class="node"><title>deserialize_general_tree</title>
<ellipse fill="none" stroke="black" cx="388" cy="-90" rx="96.0425" ry="18"/>
<text text-anchor="middle" x="388" y="-85.8" font-family="Times,serif" font-size="14.00">deserialize_general_tree</text>
</g>
<!-- two_stack&#45;&gt;deserialize_general_tree -->
<g id="edge4" class="edge"><title>two_stack&#45;&gt;deserialize_general_tree</title>
<path fill="none" stroke="black" d="M318.752,-145.465C330.542,-136.192 345.73,-124.246 358.876,-113.906"/>
<polygon fill="black" stroke="black" points="361.053,-116.647 366.749,-107.714 356.726,-111.145 361.053,-116.647"/>
</g>
<!-- get_max_value_from_stack_in_const -->
<g id="node6" class="node"><title>get_max_value_from_stack_in_const</title>
<ellipse fill="none" stroke="black" cx="645" cy="-90" rx="142.586" ry="18"/>
<text text-anchor="middle" x="645" y="-85.8" font-family="Times,serif" font-size="14.00">get_max_value_from_stack_in_const</text>
</g>
<!-- two_stack&#45;&gt;get_max_value_from_stack_in_const -->
<g id="edge5" class="edge"><title>two_stack&#45;&gt;get_max_value_from_stack_in_const</title>
<path fill="none" stroke="black" d="M338.691,-152.97C393.084,-141.966 492.088,-121.936 562.821,-107.626"/>
<polygon fill="black" stroke="black" points="563.935,-110.971 573.043,-105.558 562.547,-104.11 563.935,-110.971"/>
</g>
<!-- Depth_First_Search -->
<g id="node3" class="node"><title>Depth_First_Search</title>
<ellipse fill="none" stroke="black" cx="80" cy="-18" rx="80.2635" ry="18"/>
<text text-anchor="middle" x="80" y="-13.8" font-family="Times,serif" font-size="14.00">Depth_First_Search</text>
</g>
<!-- post_order&#45;&gt;Depth_First_Search -->
<g id="edge2" class="edge"><title>post_order&#45;&gt;Depth_First_Search</title>
<path fill="none" stroke="black" d="M80,-71.6966C80,-63.9827 80,-54.7125 80,-46.1124"/>
<polygon fill="black" stroke="black" points="83.5001,-46.1043 80,-36.1043 76.5001,-46.1044 83.5001,-46.1043"/>
</g>
<!-- two_queue -->
<g id="node7" class="node"><title>two_queue</title>
<ellipse fill="none" stroke="black" cx="1069" cy="-162" rx="48.3649" ry="18"/>
<text text-anchor="middle" x="1069" y="-157.8" font-family="Times,serif" font-size="14.00">two_queue</text>
</g>
<!-- level_order -->
<g id="node8" class="node"><title>level_order</title>
<ellipse fill="none" stroke="black" cx="1147" cy="-90" rx="50.0604" ry="18"/>
<text text-anchor="middle" x="1147" y="-85.8" font-family="Times,serif" font-size="14.00">level_order</text>
</g>
<!-- two_queue&#45;&gt;level_order -->
<g id="edge6" class="edge"><title>two_queue&#45;&gt;level_order</title>
<path fill="none" stroke="black" d="M1086.7,-145.116C1097,-135.874 1110.16,-124.066 1121.55,-113.84"/>
<polygon fill="black" stroke="black" points="1124,-116.348 1129.1,-107.064 1119.32,-111.138 1124,-116.348"/>
</g>
<!-- Breadth_First_Search -->
<g id="node9" class="node"><title>Breadth_First_Search</title>
<ellipse fill="none" stroke="black" cx="991" cy="-90" rx="87.3359" ry="18"/>
<text text-anchor="middle" x="991" y="-85.8" font-family="Times,serif" font-size="14.00">Breadth_First_Search</text>
</g>
<!-- two_queue&#45;&gt;Breadth_First_Search -->
<g id="edge7" class="edge"><title>two_queue&#45;&gt;Breadth_First_Search</title>
<path fill="none" stroke="black" d="M1051.3,-145.116C1041.22,-136.07 1028.4,-124.567 1017.18,-114.494"/>
<polygon fill="black" stroke="black" points="1019.5,-111.872 1009.72,-107.797 1014.82,-117.081 1019.5,-111.872"/>
</g>
<!-- serialize_Binary_Tree -->
<g id="node11" class="node"><title>serialize_Binary_Tree</title>
<ellipse fill="none" stroke="black" cx="923" cy="-18" rx="88.0525" ry="18"/>
<text text-anchor="middle" x="923" y="-13.8" font-family="Times,serif" font-size="14.00">serialize_Binary_Tree</text>
</g>
<!-- level_order&#45;&gt;serialize_Binary_Tree -->
<g id="edge9" class="edge"><title>level_order&#45;&gt;serialize_Binary_Tree</title>
<path fill="none" stroke="black" d="M1110.51,-77.5975C1074.82,-66.4433 1019.97,-49.3039 978.802,-36.4381"/>
<polygon fill="black" stroke="black" points="979.769,-33.0736 969.181,-33.4314 977.681,-39.7549 979.769,-33.0736"/>
</g>
<!-- deserialize_Binary_Tree -->
<g id="node12" class="node"><title>deserialize_Binary_Tree</title>
<ellipse fill="none" stroke="black" cx="1203" cy="-18" rx="96.5721" ry="18"/>
<text text-anchor="middle" x="1203" y="-13.8" font-family="Times,serif" font-size="14.00">deserialize_Binary_Tree</text>
</g>
<!-- level_order&#45;&gt;deserialize_Binary_Tree -->
<g id="edge10" class="edge"><title>level_order&#45;&gt;deserialize_Binary_Tree</title>
<path fill="none" stroke="black" d="M1160.27,-72.411C1167.08,-63.9056 1175.5,-53.3724 1183.07,-43.9138"/>
<polygon fill="black" stroke="black" points="1185.92,-45.9514 1189.44,-35.9562 1180.45,-41.5785 1185.92,-45.9514"/>
</g>
<!-- preorder -->
<g id="node10" class="node"><title>preorder</title>
<ellipse fill="none" stroke="black" cx="846" cy="-90" rx="40.0858" ry="18"/>
<text text-anchor="middle" x="846" y="-85.8" font-family="Times,serif" font-size="14.00">preorder</text>
</g>
<!-- preorder&#45;&gt;serialize_Binary_Tree -->
<g id="edge8" class="edge"><title>preorder&#45;&gt;serialize_Binary_Tree</title>
<path fill="none" stroke="black" d="M863.089,-73.4647C873.096,-64.3668 885.934,-52.6961 897.157,-42.4932"/>
<polygon fill="black" stroke="black" points="899.57,-45.0305 904.615,-35.7139 894.861,-39.8509 899.57,-45.0305"/>
</g>
<!-- postorder -->
<g id="node13" class="node"><title>postorder</title>
<ellipse fill="none" stroke="black" cx="1259" cy="-90" rx="43.2609" ry="18"/>
<text text-anchor="middle" x="1259" y="-85.8" font-family="Times,serif" font-size="14.00">postorder</text>
</g>
<!-- postorder&#45;&gt;deserialize_Binary_Tree -->
<g id="edge11" class="edge"><title>postorder&#45;&gt;deserialize_Binary_Tree</title>
<path fill="none" stroke="black" d="M1246.01,-72.7646C1239.21,-64.268 1230.74,-53.6766 1223.12,-44.1465"/>
<polygon fill="black" stroke="black" points="1225.68,-41.7462 1216.7,-36.1239 1220.21,-46.1191 1225.68,-41.7462"/>
</g>
<!-- one_queue -->
<g id="node14" class="node"><title>one_queue</title>
<ellipse fill="none" stroke="black" cx="1408" cy="-162" rx="48.1195" ry="18"/>
<text text-anchor="middle" x="1408" y="-157.8" font-family="Times,serif" font-size="14.00">one_queue</text>
</g>
<!-- sequence_level_order -->
<g id="node15" class="node"><title>sequence_level_order</title>
<ellipse fill="none" stroke="black" cx="1408" cy="-90" rx="87.3035" ry="18"/>
<text text-anchor="middle" x="1408" y="-85.8" font-family="Times,serif" font-size="14.00">sequence_level_order</text>
</g>
<!-- one_queue&#45;&gt;sequence_level_order -->
<g id="edge12" class="edge"><title>one_queue&#45;&gt;sequence_level_order</title>
<path fill="none" stroke="black" d="M1408,-143.697C1408,-135.983 1408,-126.712 1408,-118.112"/>
<polygon fill="black" stroke="black" points="1411.5,-118.104 1408,-108.104 1404.5,-118.104 1411.5,-118.104"/>
</g>
</g>
</svg>
